<svg width="180" height="180" viewBox="0 0 180 180" fill="none" xmlns="http://www.w3.org/2000/svg">
<path d="M9.35767 96.2883V99.1729H23.6661V96.2883H9.35767ZM40.55 106.327C40.5214 101.827 37.2591 97.846 32.5659 96.6345L31.8791 99.4326C35.2845 100.298 37.6883 103.154 37.6883 106.327L37.717 109.096H40.5786L40.55 106.327ZM40.6073 117.75H37.7456L37.8314 132.173H40.6931L40.6073 117.75ZM40.7503 140.827H37.8887L37.9459 155.25H40.8076L40.7503 140.827ZM40.8648 163.904H38.0031L38.089 177.115V178.327H40.9507V177.115L40.8648 163.904Z" fill="#0055FF"/>
<path d="M77.5516 1.44238V12.7789H80.4133V1.44238H77.5516ZM77.5516 21.6347C77.5516 27.577 72.744 32.7116 66.391 33.577L66.7631 36.4328C74.5469 35.3655 80.4133 29.0193 80.4133 21.4328L77.5516 21.6347ZM9.35767 33.7212V36.6058H29.3895V33.7212H9.35767ZM37.9745 33.7212V36.6058H58.0063V33.7212H37.9745Z" fill="#0055FF"/>
<path d="M155.018 146.337C155.561 146.48 156.105 146.537 156.677 146.537C157.049 146.537 157.421 146.508 157.765 146.451L155.018 146.337Z" fill="#F7931E"/>
<path d="M157.822 27.4038C157.364 27.3173 156.878 27.2885 156.391 27.2885C155.905 27.2885 155.418 27.3173 154.96 27.4038C150.124 28.0961 146.375 32.3077 146.375 37.3846C146.375 42.9519 150.868 47.4808 156.391 47.4808C161.914 47.4808 166.407 42.9519 166.407 37.3846C166.407 32.3077 162.658 28.0961 157.822 27.4038ZM156.391 44.5961C152.442 44.5961 149.237 41.3654 149.237 37.3846C149.237 33.8942 151.698 30.9808 154.96 30.3173C155.418 30.2308 155.905 30.1731 156.391 30.1731C156.878 30.1731 157.364 30.2308 157.822 30.3173C161.084 30.9808 163.545 33.8942 163.545 37.3846C163.545 41.3654 160.34 44.5961 156.391 44.5961Z" fill="#00E39F"/>
<path d="M158.108 129.346C157.65 129.26 157.164 129.231 156.677 129.231C156.191 129.231 155.704 129.26 155.246 129.346C150.41 130.038 146.661 134.25 146.661 139.327C146.661 144.288 150.238 148.442 154.96 149.25V158.365C154.96 168.692 146.06 177.115 135.1 177.115H36.7154C22.4356 177.115 10.7886 166.125 10.7886 152.596V82.125C15.3672 81.7788 19.0874 78.3173 19.8601 73.8173C19.9746 73.2404 20.0318 72.6635 20.0318 72.0577C20.0318 71.6827 20.0032 71.3077 19.9459 70.9327C19.4595 66.375 15.911 62.7115 11.4467 62.0769C11.2464 62.0481 11.0175 62.0192 10.7886 61.9904V27.4038C10.7886 13.875 22.4356 2.88462 36.7154 2.88462H135.1C146.06 2.88462 154.96 11.2788 154.96 21.6346V30.3173C155.418 30.2308 155.905 30.1731 156.391 30.1731C156.878 30.1731 157.364 30.2308 157.822 30.3173V21.6346C157.822 9.69231 147.634 0 135.1 0H36.7154C20.8331 0 7.92687 12.2885 7.92687 27.4038V62.1923C3.40541 63.1731 0 67.2115 0 72.0577C0 76.9038 3.40541 80.9712 7.92687 81.9231V152.596C7.92687 167.712 20.8331 180 36.7154 180H135.1C147.634 180 157.822 170.308 157.822 158.365V149.337C162.801 148.788 166.693 144.519 166.693 139.327C166.693 134.25 162.944 130.038 158.108 129.346ZM2.86169 72.0577C2.86169 68.7981 5.00795 66.0577 7.92687 65.1923C8.1558 65.0769 8.35612 65.0481 8.58506 64.9904C9.04293 64.9038 9.52941 64.8462 10.0159 64.8462C10.2734 64.8462 10.531 64.875 10.7886 64.875C11.0175 64.9038 11.2464 64.9615 11.4467 64.9904C14.337 65.5673 16.6264 67.9615 17.0556 70.9327C17.1415 71.3077 17.1701 71.6827 17.1701 72.0577C17.1701 72.6635 17.0843 73.2404 16.9412 73.8173C16.2258 76.7019 13.7933 78.8942 10.7886 79.2404C10.531 79.2692 10.2734 79.2692 10.0159 79.2692C9.27186 79.2692 8.58506 79.1538 7.92687 78.9519C4.97933 78.0577 2.86169 75.2885 2.86169 72.0577ZM157.822 146.452C157.793 146.452 157.793 146.452 157.765 146.452C157.421 146.51 157.049 146.538 156.677 146.538C156.105 146.538 155.561 146.481 155.017 146.337C154.989 146.337 154.989 146.337 154.96 146.337C151.841 145.558 149.523 142.702 149.523 139.327C149.523 135.837 151.984 132.923 155.246 132.26C155.704 132.173 156.191 132.115 156.677 132.115C157.164 132.115 157.65 132.173 158.108 132.26C161.37 132.923 163.831 135.837 163.831 139.327C163.831 142.904 161.227 145.904 157.822 146.452Z" fill="#00E39F"/>
<path d="M125.056 138.952V141.837H76.2067C67.5358 141.837 60.4674 134.74 60.4674 125.971V86.7981C60.4674 79.6443 54.6868 73.8174 47.5898 73.8174H19.8601C19.9746 73.2404 20.0318 72.6635 20.0318 72.0577C20.0318 71.6827 20.0032 71.3077 19.946 70.9327H47.5898C56.2607 70.9327 63.3291 78.0577 63.3291 86.7981V125.971C63.3291 133.154 69.1097 138.952 76.2067 138.952H125.056Z" fill="#00E39F"/>
<path d="M164.747 62.2213H127.03L125.657 65.1059H164.747C171.615 65.1059 177.224 70.9329 177.224 78.0867V99.6925C177.224 106.846 171.615 112.673 164.747 112.673H100.989C94.1208 112.673 88.5119 106.846 88.5119 99.6925V78.0867C88.5119 70.9329 94.1208 65.1059 100.989 65.1059H108.773L107.456 62.2213H100.989C92.5468 62.2213 85.736 69.3463 85.736 78.0867V99.6925C85.736 108.462 92.5468 115.558 100.989 115.558H164.747C173.161 115.558 180 108.462 180 99.6925V78.0867C180 69.3463 173.161 62.2213 164.747 62.2213Z" fill="#0055FF"/>
<path d="M118.932 149.539L116.814 147.577L123.367 140.365L116.9 132.692L119.103 130.817L127.173 140.452L118.932 149.539Z" fill="#00E39F"/>
<path d="M124.226 74.8845C123.224 74.7979 122.194 74.7114 121.164 74.6537L119.819 77.4518C120.906 77.5095 121.965 77.5672 122.938 77.6537C130.55 78.3748 134.442 80.4806 134.442 81.4902C134.442 82.7018 128.719 85.5575 117.615 85.5575C106.512 85.5575 100.789 82.7018 100.789 81.4902C100.789 80.4806 104.68 78.3748 112.264 77.6537C113.237 77.5672 114.267 77.5095 115.354 77.4518L114.038 74.6537H114.009C112.979 74.7114 111.978 74.7979 110.976 74.8845C103.908 75.6921 97.9268 77.8268 97.9268 81.4902C97.9268 86.2787 108.114 88.4422 117.615 88.4422C127.087 88.4422 137.304 86.2787 137.304 81.4902C137.304 77.8268 131.294 75.6921 124.226 74.8845Z" fill="#0055FF"/>
<path d="M119.819 77.4517L119.046 79.1248C118.502 80.2786 116.671 80.2786 116.127 79.1248L115.354 77.4517C114.267 77.5094 113.237 77.5671 112.264 77.6536L113.552 80.3652C114.296 81.9517 115.841 82.9325 117.587 82.9325C119.332 82.9325 120.878 81.9517 121.65 80.3652L122.938 77.6536C121.965 77.5671 120.906 77.5094 119.819 77.4517ZM135.672 43.846C134.642 35.7113 128.06 29.0767 120.019 28.0094C114.782 27.3171 109.545 28.9037 105.625 32.394C101.676 35.8844 99.4149 40.9037 99.4149 46.2113C99.4149 49.1825 100.102 52.0094 101.418 54.5479L105.024 62.221L106.369 65.1056L110.976 74.8844L112.264 77.6536L113.552 80.3652C114.296 81.9517 115.841 82.9325 117.587 82.9325C119.332 82.9325 120.878 81.9517 121.65 80.3652L122.938 77.6536L124.226 74.8844L128.833 65.1056L130.178 62.221L131.18 60.1152C131.437 59.596 134.127 53.9421 134.327 53.4517C135.3 51.144 135.816 48.6921 135.816 46.1537C135.816 45.4037 135.758 44.6248 135.672 43.846ZM131.666 52.3556C131.494 52.7594 128.919 58.269 128.633 58.8171L127.03 62.221L125.657 65.1056L121.164 74.6536L119.819 77.4517L119.046 79.1248C118.502 80.2786 116.671 80.2786 116.127 79.1248L115.354 77.4517L114.038 74.6536H114.01L109.517 65.1056L108.143 62.221L105.281 56.1344L103.994 53.2786C102.849 51.0863 102.277 48.721 102.277 46.2113C102.277 41.7402 104.165 37.4998 107.485 34.5575C110.347 32.0479 113.838 30.721 117.558 30.721C118.245 30.721 118.96 30.7787 119.647 30.8652C123.024 31.2979 126.114 32.9421 128.461 35.3075C130.808 37.6729 132.41 40.7594 132.811 44.1921C133.183 47.019 132.782 49.7306 131.666 52.3556Z" fill="#0055FF"/>
<path d="M117.615 37.5C112.235 37.5 107.857 41.9135 107.857 47.3365C107.857 52.7308 112.235 57.1442 117.615 57.1442C122.967 57.1442 127.345 52.7308 127.345 47.3365C127.345 41.9135 122.967 37.5 117.615 37.5ZM117.615 54.2596C113.809 54.2596 110.718 51.1442 110.718 47.3365C110.718 43.5 113.809 40.3846 117.615 40.3846C121.393 40.3846 124.483 43.5 124.483 47.3365C124.483 51.1442 121.393 54.2596 117.615 54.2596Z" fill="#0055FF"/>
</svg>
